<svg width="475" height="691" viewBox="0 0 475 691" fill="none" xmlns="http://www.w3.org/2000/svg">
<path d="M227.169 9.87687C198.043 16.272 137.103 50.55 126.349 136.501M126.349 155.686C126.349 161.122 127.309 175.063 131.15 187.342M119.728 110.6C125.75 77.815 140.488 48.5396 165.717 30.0216C212.766 -4.51215 260.775 -6.4307 305.904 20.4289C334.56 37.4846 357.409 70.7856 364.863 114.437M119.728 110.6C114.519 138.955 115.829 169.936 122.509 198.853C135.118 253.443 169.807 285.239 219.487 303.253M119.728 110.6C99.2105 108.362 51.8389 114.246 26.49 155.686C-5.19609 207.487 -7.11646 281.351 26.49 341.785C57.9378 398.337 127.222 412.889 166.677 409.809M364.863 114.437C369.147 139.529 368.345 168.041 360.634 198.853C344.372 263.842 279.38 298.509 245.412 309.007M364.863 114.437C401.541 119.873 474.512 155.302 472.976 253.532C471.092 373.999 375.858 410.44 325.108 419.021M233.89 307.976C236.418 308.723 238.978 309.441 241.571 310.129C242.801 309.792 244.083 309.418 245.412 309.007M233.89 307.976C233.703 309.113 233.443 310.509 233.117 312.047M233.89 307.976C228.961 306.519 224.158 304.947 219.487 303.253M245.412 309.007C245.148 310.282 245.175 312.031 245.412 314.075M233.117 312.047C235.615 313.399 241.572 315.698 245.412 314.075M233.117 312.047C232.075 316.962 230.361 323.333 228.206 327.396M245.412 314.075C246.038 319.459 248.126 326.894 250.213 333.151C252.28 339.346 245.449 341.59 239.651 339.528M219.487 303.253C221.459 310.342 225.963 325.093 228.206 327.396M228.206 327.396C227.576 328.584 226.908 329.574 226.209 330.273C222.275 334.203 224.788 334.913 230.049 335.041M230.049 335.041C231.209 335.07 232.503 335.07 233.89 335.07C235.246 337.238 237.369 338.716 239.651 339.528M230.049 335.041C231.533 338.557 233.662 342.811 236.439 347.54M236.439 347.54C225.84 371.9 193.09 397.029 176.279 407.731M236.439 347.54C248.938 368.824 274.564 399.727 313.585 416.167M166.677 409.809C169.385 409.598 171.953 409.303 174.359 408.934C174.972 408.556 175.613 408.155 176.279 407.731M166.677 409.809C166.865 411.322 167.043 413.38 167.121 415.649M176.279 407.731C176.691 408.991 177.334 410.776 178.146 412.771M167.121 415.649C167.308 421.092 166.926 427.747 164.757 430.997C160.916 436.752 164.757 441.549 169.558 437.712C171.767 435.946 173.976 436.009 176.279 436.497M167.121 415.649C170.138 415.968 176.567 415.84 178.146 412.771M178.146 412.771C179.857 416.977 182.315 422.118 184.921 425.241C189.722 430.997 190.682 436.752 184.921 437.712C181.811 438.23 178.98 437.07 176.279 436.497M313.585 416.167C316.396 417.351 319.277 418.46 322.227 419.486C323.17 419.341 324.131 419.186 325.108 419.021M313.585 416.167C313.126 417.377 312.532 418.852 311.845 420.445M325.108 419.021C325.004 420.317 324.886 422.177 324.801 424.282M311.845 420.445C309.181 426.62 305.116 434.573 302.063 435.793C297.262 437.712 296.302 444.427 303.984 443.467C308.323 442.925 309.905 444.527 311.845 446.196M311.845 420.445C313.821 422.044 319.179 425.049 324.801 424.282M324.801 424.282C324.625 428.655 324.589 434.085 325.108 437.712C326.068 444.427 326.068 450.182 318.386 449.223C315.045 448.806 313.339 447.481 311.845 446.196M239.651 339.528C241.251 364.262 242.34 424.09 233.89 465.531C225.086 508.709 234.295 613.872 244.277 666.018M311.845 446.196C307.624 469.268 294.574 522.703 276.138 551.865C257.703 581.027 251.173 656.106 250.213 690C248.295 684.731 246.271 676.432 244.277 666.018M176.279 436.497C184.601 457.047 200.476 508.89 197.403 551.865C193.562 605.584 238.342 634.362 244.277 666.018M43.7734 150.89C28.3378 168.476 1.54282 219.19 17.8484 281.351M21.6892 297.658C22.9694 302.774 27.8344 316.46 37.0521 330.273M416.325 146.093C439.05 164.852 478.737 222.546 455.693 303.253M451.852 317.803C449.292 322.599 442.634 334.11 436.489 341.785" stroke="#DD1438" stroke-width="3"/>
</svg>
