<svg width="22" height="22" viewBox="0 0 22 22" fill="none" xmlns="http://www.w3.org/2000/svg">
<g clip-path="url(#clip0_123_1142)">
<path d="M0.6875 10.8958C1.20921 10.8752 1.73092 10.8608 2.25262 10.836C2.93105 10.801 3.61154 10.7618 4.28997 10.7164C4.84261 10.6793 5.39112 10.6091 5.93345 10.506C6.52114 10.3946 7.09644 10.2378 7.63881 9.9759C8.84304 9.39421 9.67409 8.47007 10.1525 7.22425C10.3731 6.64666 10.4989 6.04641 10.5876 5.43585C10.7031 4.63552 10.7629 3.83107 10.7979 3.02455C10.8309 2.2696 10.8597 1.51464 10.8907 0.759694C10.8907 0.734944 10.8948 0.71225 10.8969 0.6875C10.9649 0.6875 11.0351 0.6875 11.1031 0.6875C11.1155 1.02991 11.1258 1.37438 11.1444 1.71679C11.1876 2.57487 11.2309 3.43296 11.2846 4.28898C11.3237 4.90986 11.4062 5.52661 11.534 6.13511C11.6826 6.84262 11.9073 7.52125 12.295 8.13594C12.9177 9.12807 13.7921 9.80464 14.8912 10.1966C15.483 10.407 16.0954 10.5266 16.714 10.6111C17.6069 10.7329 18.5039 10.7845 19.403 10.8216C19.8938 10.8422 20.3846 10.8608 20.8753 10.8814C20.9826 10.8855 21.0878 10.8979 21.1949 10.9C21.2341 10.9 21.2733 10.8835 21.3125 10.8752C21.3125 10.9639 21.3125 11.0547 21.3125 11.1433C21.2878 11.0938 21.2424 11.098 21.197 11.1C21.0176 11.1083 20.8403 11.1165 20.6609 11.1248C20.0464 11.1516 19.4318 11.1743 18.8174 11.2052C17.9657 11.2485 17.1182 11.3104 16.2769 11.4549C15.5593 11.5765 14.8602 11.758 14.2107 12.0984C13.0786 12.6883 12.297 13.5877 11.8434 14.7758C11.6227 15.3533 11.497 15.9536 11.4083 16.5641C11.2907 17.3645 11.233 18.1689 11.1979 18.9755C11.165 19.7552 11.1341 20.5328 11.1011 21.3125C11.033 21.3125 10.9629 21.3125 10.8948 21.3125C10.8742 20.7329 10.8577 20.1512 10.8288 19.5715C10.7959 18.9342 10.7588 18.2948 10.7113 17.6574C10.6598 16.9623 10.569 16.2713 10.4041 15.5906C10.2556 14.98 10.0391 14.3963 9.70502 13.8599C9.10903 12.909 8.27805 12.2469 7.23463 11.8467C6.65724 11.626 6.05718 11.4982 5.44886 11.4095C4.64671 11.2918 3.83837 11.2341 3.02797 11.199C2.24644 11.166 1.46697 11.1351 0.6875 11.1021C0.6875 11.034 0.6875 10.9639 0.6875 10.8958Z" fill="#AEAFB2"/>
</g>
<defs>
<clipPath id="clip0_123_1142">
<rect width="22" height="22" fill="white"/>
</clipPath>
</defs>
</svg>
