<svg width="44" height="44" viewBox="0 0 44 44" fill="none" xmlns="http://www.w3.org/2000/svg">
<g clip-path="url(#clip0_313_228)">
<path d="M43.7485 11.9415C43.4128 11.6059 42.8689 11.6059 42.5331 11.9415C42.4157 12.0589 42.2955 12.1698 42.1731 12.2759L35.6025 5.70517C35.2669 5.36959 34.7229 5.36959 34.3871 5.70517C34.0515 6.04076 34.0515 6.58491 34.3871 6.9205L40.7079 13.2413C37.8796 14.6131 34.1762 14.0353 30.2916 13.4078C30.0177 11.8283 29.7754 10.2845 29.702 8.81336L33.2752 12.3865C33.443 12.5544 33.6629 12.6383 33.8828 12.6383C34.1027 12.6383 34.3227 12.5543 34.4905 12.3865C34.8261 12.051 34.8261 11.5068 34.4905 11.1712L29.7589 6.43968C29.9685 4.58928 30.6194 2.90671 32.0446 1.48153L32.0597 1.4664C32.3948 1.1303 32.3941 0.58623 32.058 0.251075C31.7219 -0.0839951 31.1778 -0.0833076 30.8426 0.252793L30.8284 0.267059C27.2953 3.80011 27.7175 8.47115 28.4993 13.1235C23.7656 12.4027 19.0343 12.0611 15.5552 15.5401C11.9508 19.1446 12.5633 24.0086 13.3944 28.8012C8.57058 28.0306 3.66837 27.4272 0.251933 30.8437C-0.0836522 31.1793 -0.0836522 31.7235 0.251933 32.0591C0.419769 32.227 0.639682 32.3109 0.859596 32.3109C1.07951 32.3109 1.29942 32.2269 1.46726 32.0591C2.87087 30.6555 4.63414 30.0821 6.61516 29.9499L11.9414 35.2761C12.1092 35.444 12.3291 35.5278 12.5491 35.5278C12.769 35.5278 12.9889 35.444 13.1567 35.2761C13.4923 34.9405 13.4923 34.3964 13.1567 34.0607L9.07331 29.9773C10.5562 30.0871 12.1172 30.3356 13.7087 30.5927C14.3601 34.3498 14.8336 37.9049 13.2779 40.76L6.10796 33.5898C5.77238 33.2543 5.22822 33.2542 4.89255 33.5898C4.55696 33.9254 4.55696 34.4695 4.89255 34.8052L12.2716 42.1843C12.1707 42.2973 12.0657 42.4089 11.9557 42.5189L11.9405 42.5341C11.6055 42.8702 11.6061 43.4142 11.9422 43.7494C12.11 43.9166 12.3296 44.0002 12.5491 44.0002C12.7694 44.0002 12.9898 43.916 13.1577 43.7477L13.1719 43.7334C16.705 40.2003 16.2828 35.5293 15.501 30.877C20.2347 31.5978 24.966 31.9394 28.4451 28.4604C32.0494 24.8559 31.437 19.9918 30.6059 15.1993C35.43 15.97 40.3321 16.5732 43.7485 13.1569C44.0841 12.8213 44.0841 12.2771 43.7485 11.9415ZM15.1899 29.0896C14.8231 27.0066 14.4802 24.9777 14.4758 23.0922L17.692 26.3085C17.8598 26.4763 18.0797 26.5602 18.2996 26.5602C18.5195 26.5602 18.7395 26.4762 18.9073 26.3085C19.2429 25.9729 19.2429 25.4287 18.9073 25.0932L14.6631 20.849C14.896 19.5988 15.3671 18.4403 16.1902 17.4057L26.5974 27.8129C23.6087 30.2153 19.5376 29.7757 15.1899 29.0896ZM25.1535 18.9599L29.3385 23.1449C29.106 24.3976 28.6346 25.5583 27.8101 26.5948L17.403 16.1877C20.3919 13.7853 24.4628 14.2249 28.8105 14.911C29.1767 16.991 29.5192 19.017 29.5246 20.9002L26.3689 17.7446C26.0332 17.409 25.4892 17.409 25.1535 17.7446C24.8179 18.0802 24.8179 18.6243 25.1535 18.9599Z" fill="#AEAFB2"/>
<path d="M20.9269 27.1125L20.9188 27.1044C20.5831 26.7688 20.0391 26.7688 19.7033 27.1044C19.3678 27.44 19.3678 27.9841 19.7033 28.3198L19.7115 28.328C19.8793 28.4958 20.0993 28.5797 20.3192 28.5797C20.5391 28.5797 20.759 28.4958 20.9268 28.328C21.2625 27.9923 21.2625 27.4481 20.9269 27.1125Z" fill="#AEAFB2"/>
<path d="M24.3573 15.7327L24.3492 15.7246C24.0135 15.389 23.4695 15.389 23.1338 15.7246C22.7982 16.0602 22.7982 16.6044 23.1338 16.94L23.142 16.9481C23.3098 17.116 23.5298 17.1998 23.7497 17.1998C23.9696 17.1998 24.1895 17.116 24.3573 16.9481C24.6929 16.6125 24.6929 16.0684 24.3573 15.7327Z" fill="#AEAFB2"/>
</g>
<defs>
<clipPath id="clip0_313_228">
<rect width="44" height="44" fill="white"/>
</clipPath>
</defs>
</svg>
