<svg width="29" height="39" viewBox="0 0 29 39" fill="none" xmlns="http://www.w3.org/2000/svg">
<g clip-path="url(#clip0_313_207)">
<path d="M27.1725 33.4207L19.3134 25.2489V14.6255L20.1237 13.8083V11.3568H14.4522V13.8083L15.2624 14.6255V25.2489L7.40335 33.4207C7.08894 33.7752 6.88364 34.2143 6.81229 34.6845C6.741 35.1547 6.80728 35.6356 7.00218 36.0687C7.19714 36.5018 7.51264 36.8684 7.91054 37.1237C8.30839 37.379 8.77136 37.512 9.24291 37.5066H25.3337C25.8053 37.512 26.2675 37.379 26.6653 37.1237C27.0632 36.8684 27.3795 36.5018 27.5744 36.0687C27.7694 35.6356 27.8349 35.1547 27.7635 34.6845C27.6922 34.2143 27.4869 33.7752 27.1725 33.4207Z" stroke="#AEAFB2" stroke-width="2" stroke-linejoin="round"/>
<path d="M19.3135 14.5926H17.6931" stroke="#AEAFB2" stroke-width="2" stroke-linejoin="round"/>
<path d="M11.2037 12.8521C10.6514 12.7068 10.1471 12.4171 9.74151 12.0121C9.33593 11.6071 9.04364 11.1012 8.89411 10.5457C8.74458 9.99016 8.74337 9.40474 8.89018 8.8485C9.03693 8.2922 9.32609 7.78483 9.72961 7.37783C10.1332 6.97077 10.6363 6.67845 11.1878 6.53044C11.7393 6.38236 12.32 6.38388 12.8707 6.5347C13.4215 6.68552 13.9226 6.98046 14.3242 7.38947C14.7257 7.79854 15.0133 8.30725 15.1573 8.86428" stroke="#AEAFB2" stroke-width="2" stroke-linejoin="round"/>
<path d="M22.5466 13.0644C23.3081 13.2651 23.9714 13.7386 24.4122 14.3964C24.853 15.0542 25.0415 15.8513 24.9423 16.6389C24.8431 17.4265 24.4625 18.1508 23.8726 18.6765C23.2827 19.2022 22.5235 19.4934 21.7363 19.4956" stroke="#AEAFB2" stroke-width="2" stroke-linejoin="round"/>
<path d="M7.5657 21.1302C9.13176 21.1302 10.4014 19.8497 10.4014 18.27C10.4014 16.6905 9.13176 15.4099 7.5657 15.4099C5.99956 15.4099 4.72998 16.6905 4.72998 18.27C4.72998 19.8497 5.99956 21.1302 7.5657 21.1302Z" stroke="#AEAFB2" stroke-width="2" stroke-linejoin="round"/>
<path d="M3.91986 6.42087C5.26224 6.42087 6.35048 5.3233 6.35048 3.96934C6.35048 2.61539 5.26224 1.51779 3.91986 1.51779C2.57748 1.51779 1.48926 2.61539 1.48926 3.96934C1.48926 5.3233 2.57748 6.42087 3.91986 6.42087Z" stroke="#AEAFB2" stroke-width="2" stroke-linejoin="round"/>
<path d="M21.7439 6.42087C23.0862 6.42087 24.1744 5.3233 24.1744 3.96934C24.1744 2.61539 23.0862 1.51779 21.7439 1.51779C20.4015 1.51779 19.3132 2.61539 19.3132 3.96934C19.3132 5.3233 20.4015 6.42087 21.7439 6.42087Z" stroke="#AEAFB2" stroke-width="2" stroke-linejoin="round"/>
<path d="M10.4011 2.33484H12.0216" stroke="#AEAFB2" stroke-width="2" stroke-linejoin="round"/>
<path d="M4.72998 12.1411H6.35036" stroke="#AEAFB2" stroke-width="2" stroke-linejoin="round"/>
<path d="M16.073 30.9365H24.9852" stroke="#AEAFB2" stroke-width="2" stroke-linejoin="round"/>
<path d="M13.6421 30.9365H9.59106" stroke="#AEAFB2" stroke-width="2" stroke-linejoin="round"/>
</g>
<defs>
<clipPath id="clip0_313_207">
<rect width="29" height="39" fill="white"/>
</clipPath>
</defs>
</svg>
