<svg width="40" height="45" viewBox="0 0 40 45" fill="none" xmlns="http://www.w3.org/2000/svg">
<path d="M14 8H7.99998C7.20431 8 6.44152 8.26347 5.8789 8.73231C5.3163 9.20115 5 9.83697 5 10.5C5 11.163 5.3163 11.7989 5.8789 12.2678C6.44152 12.7367 7.20431 13 7.99998 13H14C14.7956 13 15.5594 12.7367 16.122 12.2678C16.6846 11.7989 17 11.163 17 10.5C17 9.83697 16.6846 9.20115 16.122 8.73231C15.5594 8.26347 14.7956 8 14 8Z" stroke="#AEAFB2" stroke-width="2" stroke-miterlimit="10" stroke-linecap="round"/>
<path d="M11 8V13" stroke="#AEAFB2" stroke-width="2" stroke-miterlimit="10" stroke-linecap="round"/>
<path d="M29 8H23C22.2043 8 21.4415 8.26347 20.8788 8.73231C20.3162 9.20115 20 9.83697 20 10.5C20 11.163 20.3162 11.7989 20.8788 12.2678C21.4415 12.7367 22.2043 13 23 13H29C29.7956 13 30.5594 12.7367 31.122 12.2678C31.6846 11.7989 32 11.163 32 10.5C32 9.83697 31.6846 9.20115 31.122 8.73231C30.5594 8.26347 29.7956 8 29 8Z" stroke="#AEAFB2" stroke-width="2" stroke-miterlimit="10" stroke-linecap="round"/>
<path d="M26 8V13" stroke="#AEAFB2" stroke-width="2" stroke-miterlimit="10" stroke-linecap="round"/>
<path d="M14 17H7.99998C7.20431 17 6.44152 17.3162 5.8789 17.8788C5.3163 18.4414 5 19.2043 5 20C5 20.7956 5.3163 21.5587 5.8789 22.1213C6.44152 22.6839 7.20431 23 7.99998 23H14C14.7956 23 15.5594 22.6839 16.122 22.1213C16.6846 21.5587 17 20.7956 17 20C17 19.2043 16.6846 18.4414 16.122 17.8788C15.5594 17.3162 14.7956 17 14 17Z" stroke="#AEAFB2" stroke-width="2" stroke-miterlimit="10" stroke-linecap="round"/>
<path d="M11 17V23" stroke="#AEAFB2" stroke-width="2" stroke-miterlimit="10" stroke-linecap="round"/>
<path d="M14 27H7.99998C7.20431 27 6.44152 27.2635 5.8789 27.7323C5.3163 28.2011 5 28.837 5 29.5C5 30.163 5.3163 30.7989 5.8789 31.2678C6.44152 31.7366 7.20431 32 7.99998 32H14C14.7956 32 15.5594 31.7366 16.122 31.2678C16.6846 30.7989 17 30.163 17 29.5C17 28.837 16.6846 28.2011 16.122 27.7323C15.5594 27.2635 14.7956 27 14 27Z" stroke="#AEAFB2" stroke-width="2" stroke-miterlimit="10" stroke-linecap="round"/>
<path d="M11 27V32" stroke="#AEAFB2" stroke-width="2" stroke-miterlimit="10" stroke-linecap="round"/>
<path d="M29 17H23C22.2044 17 21.4415 17.3162 20.8789 17.8788C20.3163 18.4414 20 19.2043 20 20C20 20.7956 20.3163 21.5587 20.8789 22.1213C21.4415 22.6839 22.2044 23 23 23H29C29.7957 23 30.5595 22.6839 31.1221 22.1213C31.6847 21.5587 32 20.7956 32 20C32 19.2043 31.6847 18.4414 31.1221 17.8788C30.5595 17.3162 29.7957 17 29 17Z" stroke="#AEAFB2" stroke-width="2" stroke-miterlimit="10" stroke-linecap="round"/>
<path d="M26 17V23" stroke="#AEAFB2" stroke-width="2" stroke-miterlimit="10" stroke-linecap="round"/>
<path d="M37.4458 27.5535C36.45 26.5588 35.1 26 33.6924 26C32.2849 26 30.9348 26.5588 29.939 27.5535L22.4321 35.0604C21.4908 36.0667 20.9778 37.3995 21.0007 38.7773C21.0237 40.1551 21.5815 41.47 22.5559 42.4444C23.5302 43.4188 24.8444 43.9762 26.2222 43.9993C27.5999 44.0222 28.9327 43.5088 29.939 42.5674L37.4458 35.0604C38.4406 34.0646 39 32.7145 39 31.307C39 29.8994 38.4406 28.5494 37.4458 27.5535Z" stroke="#AEAFB2" stroke-width="2" stroke-miterlimit="10"/>
<path d="M34 29.0016C33.6806 28.9897 33.363 29.0442 33.0651 29.1619C32.7671 29.2795 32.4951 29.4577 32.2674 29.6857L30 32" stroke="#AEAFB2" stroke-width="2" stroke-miterlimit="10" stroke-linecap="round"/>
<path d="M34 38.7872C33.1452 39.489 30.882 38.4072 28.7255 36.2435C26.5689 34.0799 25.5099 31.8187 26.2191 31" stroke="#AEAFB2" stroke-width="2" stroke-miterlimit="10"/>
<path d="M18.0526 39H3.8421C3.08833 39 2.36565 38.6998 1.83265 38.1653C1.29965 37.6308 1 36.9059 1 36.15V3.85C1 3.09413 1.29965 2.36932 1.83265 1.83485C2.36565 1.30036 3.08833 1 3.8421 1H34.1579C34.9117 1 35.6352 1.30036 36.1682 1.83485C36.7012 2.36932 37 3.09413 37 3.85V22.85" stroke="#AEAFB2" stroke-width="2" stroke-linecap="round" stroke-linejoin="round"/>
</svg>
