<svg width="21" height="21" viewBox="0 0 21 21" fill="none" xmlns="http://www.w3.org/2000/svg">
<path d="M6.0715 11.596C5.65645 12.4118 6.12767 12.8018 7.20293 13.4681C8.11699 14.0328 9.3797 14.2393 10.1908 14.3219L9.51108 14.9759C8.54753 15.8934 7.63355 16.7817 6.99436 17.3972C6.06405 18.2889 7.56173 19.7195 8.49139 18.8468L11.0081 16.4195C11.9716 17.3464 12.8951 18.2347 13.5247 18.8502C14.4551 19.7263 15.9521 18.3078 15.0319 17.4006L12.5152 14.9793L11.826 14.3253C12.6472 14.2426 13.8911 14.024 14.7943 13.4715L14.7936 13.4708C15.8688 12.8012 16.3401 12.4118 15.9311 11.596C15.684 11.1329 15.0177 10.7456 14.1308 11.4152C14.1308 11.4152 12.933 12.3326 11.0013 12.3326C9.06891 12.3326 7.87186 11.4152 7.87186 11.4152C6.98485 10.7422 6.31592 11.1329 6.0715 11.596Z" fill="#AEAFB2"/>
<path d="M10.9992 11.0961C13.354 11.0961 15.277 9.25581 15.277 6.99031C15.277 4.7153 13.354 2.875 10.9992 2.875C8.64357 2.875 6.7207 4.7153 6.7207 6.99031C6.7207 9.25581 8.64357 11.0961 10.9992 11.0961ZM10.9992 4.95973C12.1563 4.95973 13.1001 5.86769 13.1001 6.99031C13.1001 8.10344 12.1563 9.01141 10.9992 9.01141C9.842 9.01141 8.8982 8.10344 8.8982 6.99031C8.89747 5.86701 9.84135 4.95973 10.9992 4.95973Z" fill="#AEAFB2"/>
</svg>
