<svg width="41" height="14" viewBox="0 0 41 14" fill="none" xmlns="http://www.w3.org/2000/svg">
<g clip-path="url(#clip0_123_1123)">
<path fill-rule="evenodd" clip-rule="evenodd" d="M17.7251 13.0445H14.3887L16.4739 0.229492H19.8107L17.7251 13.0445Z" fill="#AEAFB2"/>
<path fill-rule="evenodd" clip-rule="evenodd" d="M11.582 0.229492L8.40086 9.04342L8.02481 7.14537L8.02516 7.14605L6.90216 1.38368C6.90216 1.38368 6.76676 0.229492 5.31948 0.229492H0.0613602L0 0.446138C0 0.446138 1.60839 0.780705 3.48965 1.91158L6.38831 13.0445H9.86459L15.1728 0.229492H11.582Z" fill="#AEAFB2"/>
<path fill-rule="evenodd" clip-rule="evenodd" d="M34.1534 8.5114L35.9068 3.71537L36.893 8.5114H34.1534ZM37.8247 13.0445H40.8882L38.2172 0.229492H35.5348C34.296 0.229492 33.9947 1.18452 33.9947 1.18452L29.019 13.0445H32.4963L33.1922 11.1413H37.4336L37.8247 13.0445Z" fill="#AEAFB2"/>
<path fill-rule="evenodd" clip-rule="evenodd" d="M29.2797 3.31105L29.7555 0.558755C29.7555 0.558755 28.2863 0 26.7547 0C25.099 0 21.1674 0.723982 21.1674 4.24242C21.1674 7.55347 25.7818 7.59461 25.7818 9.33292C25.7818 11.0712 21.6429 10.7607 20.2772 9.66406L19.7808 12.5411C19.7808 12.5411 21.2703 13.2651 23.5471 13.2651C25.8236 13.2651 29.2588 12.0856 29.2588 8.87769C29.2588 5.54573 24.6026 5.2355 24.6026 3.78685C24.6026 2.3382 27.8519 2.52434 29.2797 3.31105Z" fill="#AEAFB2"/>
</g>
<defs>
<clipPath id="clip0_123_1123">
<rect width="41" height="14" fill="white"/>
</clipPath>
</defs>
</svg>
