<svg width="29" height="22" viewBox="0 0 29 22" fill="none" xmlns="http://www.w3.org/2000/svg">
<g clip-path="url(#clip0_123_1105)">
<path d="M5.83749 21.058V19.6573C5.83749 19.1203 5.51065 18.7701 4.95037 18.7701C4.67022 18.7701 4.36672 18.8635 4.15661 19.167C3.99319 18.9102 3.75975 18.7701 3.40956 18.7701C3.1761 18.7701 2.94264 18.8402 2.75588 19.097V18.8168H2.26562V21.058H2.75588V19.8207C2.75588 19.4238 2.96599 19.237 3.29283 19.237C3.61968 19.237 3.78308 19.4471 3.78308 19.8207V21.058H4.27334V19.8207C4.27334 19.4238 4.50681 19.237 4.8103 19.237C5.13714 19.237 5.30054 19.4471 5.30054 19.8207V21.058H5.83749ZM13.098 18.8168H12.3042V18.1398H11.814V18.8168H11.3704V19.2604H11.814V20.2876C11.814 20.8012 12.0241 21.1047 12.5844 21.1047C12.7945 21.1047 13.0279 21.0346 13.1913 20.9413L13.0513 20.521C12.9112 20.6144 12.7478 20.6378 12.6311 20.6378C12.3976 20.6378 12.3042 20.4977 12.3042 20.2642V19.2604H13.098V18.8168ZM17.2535 18.7701C16.9733 18.7701 16.7866 18.9102 16.6698 19.097V18.8168H16.1796V21.058H16.6698V19.7973C16.6698 19.4238 16.8333 19.2137 17.1367 19.2137C17.2301 19.2137 17.3469 19.237 17.4402 19.2604L17.5803 18.7935C17.4869 18.7701 17.3469 18.7701 17.2535 18.7701ZM10.9735 19.0036C10.7401 18.8402 10.4132 18.7701 10.063 18.7701C9.50274 18.7701 9.12921 19.0503 9.12921 19.4938C9.12921 19.8674 9.40937 20.0775 9.89963 20.1475L10.1331 20.1709C10.3899 20.2176 10.53 20.2876 10.53 20.4043C10.53 20.5677 10.3432 20.6845 10.0164 20.6845C9.68952 20.6845 9.43272 20.5677 9.2693 20.451L9.03583 20.8245C9.29263 21.0113 9.64283 21.1047 9.99301 21.1047C10.6467 21.1047 11.0202 20.8012 11.0202 20.381C11.0202 19.9841 10.7167 19.774 10.2498 19.7039L10.0164 19.6806C9.80624 19.6573 9.64282 19.6106 9.64282 19.4705C9.64282 19.3071 9.80623 19.2137 10.063 19.2137C10.3432 19.2137 10.6233 19.3304 10.7634 19.4005L10.9735 19.0036ZM24.0003 18.7701C23.7202 18.7701 23.5334 18.9102 23.4167 19.097V18.8168H22.9264V21.058H23.4167V19.7973C23.4167 19.4238 23.5801 19.2137 23.8836 19.2137C23.977 19.2137 24.0937 19.237 24.1871 19.2604L24.3272 18.7935C24.2338 18.7701 24.0937 18.7701 24.0003 18.7701ZM17.7437 19.9374C17.7437 20.6144 18.2106 21.1047 18.9344 21.1047C19.2612 21.1047 19.4946 21.0346 19.7281 20.8479L19.4946 20.451C19.3079 20.5911 19.1211 20.6611 18.911 20.6611C18.5141 20.6611 18.234 20.381 18.234 19.9374C18.234 19.5172 18.5141 19.237 18.911 19.2137C19.1211 19.2137 19.3079 19.2837 19.4946 19.4238L19.7281 19.0269C19.4946 18.8402 19.2612 18.7701 18.9344 18.7701C18.2106 18.7701 17.7437 19.2604 17.7437 19.9374ZM22.2728 19.9374V18.8168H21.7825V19.097C21.6191 18.8869 21.3856 18.7701 21.0821 18.7701C20.4518 18.7701 19.9616 19.2604 19.9616 19.9374C19.9616 20.6144 20.4518 21.1047 21.0821 21.1047C21.409 21.1047 21.6424 20.988 21.7825 20.7778V21.058H22.2728V19.9374ZM20.4752 19.9374C20.4752 19.5405 20.732 19.2137 21.1522 19.2137C21.5491 19.2137 21.8292 19.5172 21.8292 19.9374C21.8292 20.3343 21.5491 20.6611 21.1522 20.6611C20.732 20.6378 20.4752 20.3343 20.4752 19.9374ZM14.6154 18.7701C13.9618 18.7701 13.4948 19.237 13.4948 19.9374C13.4948 20.6378 13.9618 21.1047 14.6388 21.1047C14.9656 21.1047 15.2924 21.0113 15.5492 20.8012L15.3158 20.451C15.129 20.5911 14.8956 20.6845 14.6621 20.6845C14.3586 20.6845 14.0551 20.5444 13.9851 20.1475H15.6426C15.6426 20.0775 15.6426 20.0308 15.6426 19.9607C15.666 19.237 15.2458 18.7701 14.6154 18.7701ZM14.6154 19.1903C14.9189 19.1903 15.129 19.3771 15.1757 19.7273H14.0084C14.0551 19.4238 14.2652 19.1903 14.6154 19.1903ZM26.7785 19.9374V17.9297H26.2882V19.097C26.1248 18.8869 25.8913 18.7701 25.5878 18.7701C24.9575 18.7701 24.4672 19.2604 24.4672 19.9374C24.4672 20.6144 24.9575 21.1047 25.5878 21.1047C25.9147 21.1047 26.1481 20.988 26.2882 20.7778V21.058H26.7785V19.9374ZM24.9808 19.9374C24.9808 19.5405 25.2376 19.2137 25.6579 19.2137C26.0547 19.2137 26.3349 19.5172 26.3349 19.9374C26.3349 20.3343 26.0547 20.6611 25.6579 20.6611C25.2376 20.6378 24.9808 20.3343 24.9808 19.9374ZM8.59228 19.9374V18.8168H8.10202V19.097C7.93859 18.8869 7.70514 18.7701 7.40164 18.7701C6.77131 18.7701 6.28106 19.2604 6.28106 19.9374C6.28106 20.6144 6.77131 21.1047 7.40164 21.1047C7.72848 21.1047 7.96195 20.988 8.10202 20.7778V21.058H8.59228V19.9374ZM6.77132 19.9374C6.77132 19.5405 7.02811 19.2137 7.44833 19.2137C7.84521 19.2137 8.12536 19.5172 8.12536 19.9374C8.12536 20.3343 7.84521 20.6611 7.44833 20.6611C7.02811 20.6378 6.77132 20.3343 6.77132 19.9374Z" fill="#AEAFB2"/>
<path d="M10.8101 1.79785H18.164V15.0114H10.8101V1.79785Z" fill="#7C6E72"/>
<path d="M11.2769 8.40439C11.2769 5.71966 12.5376 3.33841 14.4753 1.79761C13.0512 0.677021 11.2536 0 9.29258 0C4.64682 0 0.888184 3.75863 0.888184 8.40439C0.888184 13.0502 4.64682 16.8088 9.29258 16.8088C11.2536 16.8088 13.0512 16.1318 14.4753 15.0112C12.5376 13.4937 11.2769 11.0891 11.2769 8.40439Z" fill="#AEAFB2"/>
<path d="M28.0856 8.40439C28.0856 13.0502 24.327 16.8088 19.6812 16.8088C17.7202 16.8088 15.9226 16.1318 14.4985 15.0112C16.4596 13.4704 17.6969 11.0891 17.6969 8.40439C17.6969 5.71966 16.4362 3.33841 14.4985 1.79761C15.9226 0.677021 17.7202 0 19.6812 0C24.327 0 28.0856 3.78198 28.0856 8.40439Z" fill="#AEAFB2"/>
</g>
<defs>
<clipPath id="clip0_123_1105">
<rect width="29" height="22" fill="white"/>
</clipPath>
</defs>
</svg>
