<svg width="65" height="24" viewBox="0 0 65 24" fill="none" xmlns="http://www.w3.org/2000/svg">
<g clip-path="url(#clip0_123_1128)">
<path d="M3.04084 16.9786C0.343969 15.353 -0.150367 11.7112 2.03569 9.63103C2.67833 9.02141 3.46927 8.72194 4.35907 8.69521C5.10607 8.67381 5.85856 8.68986 6.61104 8.68986C6.67696 8.68986 6.74836 8.71659 6.83624 8.73799C6.83624 13.2353 6.83624 17.7112 6.83624 22.2139C6.36937 22.2139 5.91897 22.2139 5.43562 22.2139C5.43562 20.5508 5.43562 18.9038 5.43562 17.2353C5.11156 17.2353 4.82594 17.2353 4.50188 17.2353C3.63954 18.877 2.76072 20.5401 1.88739 22.2086C1.32714 22.2086 0.788871 22.2086 0.0913086 22.2086C1.10195 20.4011 2.07414 18.6899 3.04084 16.9786ZM5.40267 9.89307C3.90318 9.64708 2.92 10.1604 2.48609 11.4385C2.16202 12.3957 2.12357 13.385 2.43665 14.353C2.9255 15.8717 4.08444 16.1979 5.40267 16C5.40267 13.9572 5.40267 11.9252 5.40267 9.89307Z" fill="#AEAFB2"/>
<path d="M19.9799 23.9892C19.9799 23.3796 19.9799 22.8235 19.9799 22.2459C18.6617 22.2459 17.3599 22.2459 16.0362 22.2459C16.0362 22.7165 16.0307 23.1818 16.0362 23.6523C16.0417 23.8876 15.9483 24.0053 15.7011 24.0053C15.3826 24.0053 15.0695 24.0053 14.7344 24.0053C14.7344 23.0106 14.7344 22.0695 14.7344 21.1336C14.9102 21.0106 15.097 21.1015 15.3002 21.0427C16.569 18.5935 16.5855 15.9197 16.58 13.2085C17.9092 13.2085 19.2219 13.2085 20.5676 13.2085C20.5676 13.3208 20.5676 13.4224 20.5676 13.5294C20.5676 15.8502 20.5731 18.1764 20.5621 20.4973C20.5621 20.8983 20.6225 21.1497 21.1059 21.0748C21.1498 21.0695 21.2047 21.1069 21.2816 21.1336C21.2816 22.0213 21.2816 22.909 21.2816 23.7967C21.2816 23.9037 21.2157 23.9946 21.1004 23.9946C20.7379 23.9892 20.3754 23.9892 19.9799 23.9892ZM19.0901 21.0534C19.0901 18.7967 19.0901 16.5668 19.0901 14.3208C18.755 14.3208 18.4365 14.3208 18.1179 14.3208C18.074 14.3208 18.03 14.3261 17.9696 14.3315C17.8872 16.6577 17.7224 18.9572 16.4866 21.0641C17.3489 21.0641 18.1618 21.0641 18.9747 21.0641C19.0132 21.0588 19.0461 21.0534 19.0901 21.0534Z" fill="#AEAFB2"/>
<path d="M12.2902 16.7164C12.2902 15.5507 12.2902 14.3956 12.2902 13.2031C12.7681 13.2031 13.2295 13.2031 13.7128 13.2031C13.7128 16.2084 13.7128 19.2031 13.7128 22.2084C13.2404 22.2084 12.79 22.2084 12.3012 22.2084C12.3012 20.7699 12.3012 19.3475 12.3012 17.909C11.5872 17.909 10.9006 17.909 10.181 17.909C10.181 19.3368 10.181 20.7646 10.181 22.2031C9.68667 22.2031 9.23628 22.2031 8.75293 22.2031C8.75293 19.2084 8.75293 16.2191 8.75293 13.1924C9.20882 13.1924 9.6702 13.1924 10.1591 13.1924C10.1591 14.3528 10.1591 15.5239 10.1591 16.7111C10.8786 16.7164 11.5652 16.7164 12.2902 16.7164Z" fill="#AEAFB2"/>
<path d="M27.137 20.9306C27.2084 21.2301 27.2743 21.5028 27.3402 21.7648C25.8627 22.7434 23.3416 22.9787 22.4133 20.4279C21.6718 18.3905 21.8476 16.3317 22.7813 14.3691C23.3416 13.1926 24.4291 12.7006 25.5002 13.0375C26.357 13.3049 26.7635 13.9894 27.0436 14.7541C27.4226 15.8022 27.4226 16.8932 27.4226 18.0215C26.1318 17.9948 24.8575 18.075 23.5558 17.952C23.5778 18.9359 23.5723 19.9092 24.3467 20.6472C25.1706 21.4333 26.1593 21.1017 27.137 20.9306ZM25.9066 16.8611C25.8902 16.0536 25.8627 15.2728 25.4892 14.5563C25.1981 14.0001 24.6159 13.9145 24.2643 14.3958C23.7096 15.1498 23.6931 16.0429 23.6272 16.9359C24.4017 16.8343 25.1322 16.8825 25.9066 16.8611Z" fill="#AEAFB2"/>
<path d="M30.3279 17.5244C30.3279 19.1821 30.3279 20.6848 30.3279 22.2088C29.839 22.2088 29.3886 22.2088 28.9053 22.2088C28.9053 19.2088 28.9053 16.2088 28.9053 13.1875C29.3776 13.1875 29.8225 13.1875 30.3114 13.1875C30.3114 14.5244 30.3114 15.8506 30.3114 17.3425C30.4652 17.0805 30.5531 16.9522 30.619 16.8185C31.1408 15.765 31.6681 14.7169 32.1679 13.6527C32.3437 13.2837 32.5853 13.1233 32.9918 13.1554C33.3159 13.1768 33.6399 13.1607 34.0409 13.1607C33.2499 14.5725 32.5029 15.904 31.745 17.257C32.6183 18.888 33.4916 20.5244 34.3924 22.2142C33.8431 22.2142 33.3433 22.2302 32.849 22.2035C32.6403 22.1928 32.5579 21.9896 32.47 21.8185C31.7834 20.4334 31.0913 19.0484 30.3279 17.5244Z" fill="#AEAFB2"/>
<path d="M39.6437 13.5777C39.424 13.9841 39.1987 14.3692 38.8911 14.7435C38.6934 14.5938 38.5342 14.4601 38.3694 14.3478C37.7652 13.936 37.2269 14.0376 36.8369 14.6419C36.4249 15.2783 36.2766 16.0055 36.1943 16.7382C36.0844 17.6579 36.0954 18.5831 36.3426 19.4868C36.727 20.8879 37.6608 21.3959 39.1438 21.0376C39.2811 21.0055 39.424 20.9735 39.5943 20.9307C39.6657 21.2034 39.7315 21.4601 39.8084 21.7542C39.2756 22.182 38.644 22.4013 37.9684 22.4333C36.5842 22.4975 35.5517 21.8932 35.0574 20.5884C34.2555 18.4708 34.3928 16.3531 35.5023 14.3692C36.3481 12.8558 37.9189 12.5242 39.4404 13.4173C39.5008 13.4494 39.5558 13.5082 39.6437 13.5777Z" fill="#AEAFB2"/>
<path fill-rule="evenodd" clip-rule="evenodd" d="M61.2518 9.42246H64.086V22.9733H63.8059H48.0036C46.8831 22.9733 46.1581 22.262 46.1581 21.1658C46.1581 20.2394 46.1628 19.313 46.1676 18.3866C46.179 16.1632 46.1904 13.9399 46.1361 11.7166C46.0976 10.2246 46.6579 9.11765 47.8113 8.22995C49.309 7.08197 50.8116 5.93875 52.3142 4.79553C53.0654 4.22395 53.8166 3.65238 54.5673 3.08021C55.5431 2.33512 56.513 1.58713 57.5033 0.823371L57.5034 0.823325C57.8564 0.55108 58.212 0.276832 58.5714 0V9.39572V9.40091L58.5658 9.40088C58.5658 10.2611 58.5644 11.1227 58.5631 11.9849V11.9851C58.5617 12.8487 58.5603 13.713 58.5603 14.5774C58.5603 14.7173 58.5456 14.825 58.4502 14.921C58.4301 14.9407 58.4066 14.9599 58.3792 14.9786C57.8158 15.3516 57.2525 15.7249 56.6891 16.0983C56.0405 16.5281 55.3924 16.9581 54.7444 17.3882C53.3656 18.3032 51.9869 19.219 50.6081 20.1347L50.6016 20.139C50.3389 20.3129 50.0763 20.4859 49.8139 20.6588C49.374 20.9487 48.9349 21.238 48.4979 21.5294L48.4986 21.5304L48.4924 21.5346C48.4978 21.5426 48.502 21.5506 48.5061 21.5586V21.5587C48.5102 21.5667 48.5143 21.5747 48.5198 21.5827L48.5208 21.5824L48.5249 21.5811C52.7635 20.2394 57.0021 18.8977 61.2517 17.5506V17.5472L61.2573 17.5455C61.2518 14.8293 61.2518 12.1239 61.2518 9.42387V9.42246ZM54.1989 11.2931C53.643 11.2634 53.3143 10.8202 53.4027 10.155C53.496 9.41699 54.2265 8.62554 54.9735 8.44373C55.2993 8.36566 55.5747 8.39889 55.7775 8.52565C55.79 8.53351 55.8024 8.54173 55.8144 8.55031C56.0333 8.70655 56.1575 8.98087 56.1546 9.34759C56.1437 10.1765 55.3582 11.1016 54.5233 11.2674C54.4085 11.2906 54.3 11.2988 54.1989 11.2931Z" fill="#AEAFB2"/>
</g>
<defs>
<clipPath id="clip0_123_1128">
<rect width="65" height="24" fill="white"/>
</clipPath>
</defs>
</svg>
