<svg width="24" height="24" viewBox="0 0 24 24" fill="none" xmlns="http://www.w3.org/2000/svg">
<path fill-rule="evenodd" clip-rule="evenodd" d="M12.697 4.51306C12.6217 4.50922 12.5444 4.50528 12.464 4.5C12.4689 4.51109 12.473 4.52076 12.4766 4.52925C12.4887 4.55813 12.4952 4.57342 12.5067 4.5849C12.5438 4.63502 12.5804 4.6857 12.617 4.73644C12.7044 4.85759 12.7921 4.97911 12.8882 5.09431C12.9799 5.20255 13.0055 5.31505 13.0055 5.45302C13.0033 9.50572 13.0034 13.5562 13.0034 17.6089V17.613C13.0034 18.4132 13.2975 19.0839 13.9071 19.6124C14.3526 19.9988 14.8727 20.228 15.4631 20.2386C16.247 20.2526 17.032 20.2506 17.8164 20.2485C18.0964 20.2478 18.3764 20.2471 18.6562 20.2471C18.6738 20.2471 18.6913 20.2431 18.7144 20.2378C18.7249 20.2354 18.7367 20.2327 18.75 20.2301C18.7446 20.2211 18.7396 20.2127 18.7348 20.2048C18.7171 20.1751 18.7034 20.1521 18.6882 20.1303C18.6454 20.0727 18.6032 20.0144 18.5609 19.9562C18.46 19.8171 18.3587 19.6776 18.2491 19.5445C18.1681 19.4447 18.1382 19.345 18.1382 19.2176C18.1404 15.9532 18.1404 12.6866 18.1404 9.42217C18.1404 8.38635 17.8079 7.46305 17.1578 6.66073C16.6675 6.05369 16.0493 5.5931 15.3587 5.22802C14.6489 4.85234 13.8901 4.62947 13.0928 4.54033C12.9637 4.52665 12.8336 4.52002 12.697 4.51306ZM10.3976 4.5725C10.3964 4.55374 10.3952 4.53365 10.3943 4.51108C10.3817 4.51163 10.3704 4.51203 10.3601 4.5124C10.3298 4.51348 10.3073 4.51429 10.2835 4.51745C9.4095 4.61508 8.58885 4.87403 7.8258 5.31764C6.92838 5.83978 6.17807 6.50414 5.71126 7.44866C5.48318 7.90928 5.31692 8.39318 5.28494 8.90475C5.24871 9.4566 5.24444 10.0126 5.25511 10.5667C5.27216 11.4178 5.53434 12.1989 6.00968 12.9036C6.44451 13.5445 7.0243 14.0327 7.67865 14.436C8.56118 14.9815 9.52673 15.2723 10.5605 15.3466C10.6385 15.3524 10.7174 15.3512 10.803 15.35C10.8415 15.3493 10.8813 15.3488 10.9229 15.3488C10.8931 15.3063 10.8739 15.2787 10.8547 15.2511C10.8158 15.1982 10.7765 15.1456 10.7372 15.093C10.6474 14.9729 10.5577 14.853 10.4732 14.7289C10.4327 14.6695 10.4028 14.5889 10.4028 14.5188C10.4007 11.2289 10.4007 7.93897 10.4007 4.64905C10.4007 4.62395 10.3992 4.59961 10.3976 4.5725Z" fill="#AEAFB2"/>
</svg>
