<svg width="256" height="99" viewBox="0 0 256 99" fill="none" xmlns="http://www.w3.org/2000/svg">
<path d="M252 50.5C252 56.9378 248.604 63.1271 242.341 68.8136C236.077 74.5001 226.986 79.6441 215.709 83.9744C193.159 92.6336 161.973 98 127.5 98C93.0275 98 61.841 92.6336 39.2909 83.9744C28.0142 79.6441 18.9228 74.5001 12.6592 68.8136C6.39577 63.1271 3 56.9378 3 50.5C3 44.0622 6.39577 37.8729 12.6592 32.1864C18.9228 26.4999 28.0142 21.3559 39.2909 17.0256C61.841 8.36641 93.0275 3 127.5 3C161.973 3 193.159 8.36641 215.709 17.0256C226.986 21.3559 236.077 26.4999 242.341 32.1864C248.604 37.8729 252 44.0622 252 50.5Z" stroke="#FDEEC2"/>
<path d="M255.5 50.5155C255.5 56.9607 252.315 62.9303 246.389 68.2812C240.457 73.6363 231.808 78.3427 220.969 82.236C199.295 90.0216 168.982 94.5155 134.5 94.5155C100.019 94.5155 66.4462 90.0219 41.5108 82.2294C29.0402 78.3322 18.7597 73.6191 11.6076 68.2524C4.45016 62.8818 0.5 56.9171 0.5 50.5155C0.5 44.1025 4.24447 38.1369 11.0696 32.7717C17.8929 27.4079 27.7342 22.6963 39.7657 18.8C63.8233 11.0091 96.5186 6.51547 131 6.51547C165.482 6.51547 196.673 11.0092 219.225 18.797C230.503 22.6915 239.592 27.4 245.852 32.7584C252.109 38.1145 255.5 44.0823 255.5 50.5155Z" stroke="#FDEEC2"/>
<path d="M249.5 50.5155C249.5 56.9441 246.082 62.784 239.782 67.9508C233.477 73.1209 224.327 77.579 212.985 81.2228C190.306 88.509 158.987 92.5 124.5 92.5C90.0122 92.5 60.198 88.5088 39.0243 81.226C28.4361 77.5842 20.0394 73.1297 14.2981 67.9657C8.564 62.8081 5.5 56.9654 5.5 50.5155C5.5 44.0793 8.98773 37.7318 15.3969 31.8058C21.8037 25.882 31.0851 20.424 42.5494 15.78C65.4746 6.49334 97.034 0.5 131.5 0.5C165.966 0.5 195.519 6.49335 216.436 15.7736C226.895 20.4141 235.174 25.8671 240.831 31.7842C246.487 37.6998 249.5 44.0532 249.5 50.5155Z" stroke="#FDEEC2"/>
</svg>
