<svg width="24" height="24" viewBox="0 0 24 24" fill="none" xmlns="http://www.w3.org/2000/svg">
<path d="M21.8938 17.5997C21.8696 17.5475 21.847 17.5042 21.8261 17.4695C21.4791 16.8445 20.816 16.0775 19.8372 15.168L19.8165 15.1472L19.8061 15.137L19.7957 15.1265H19.7852C19.3409 14.703 19.0596 14.4183 18.9418 14.2725C18.7263 13.9948 18.678 13.7137 18.7958 13.4289C18.879 13.2137 19.1916 12.7593 19.733 12.065C20.0177 11.697 20.2432 11.4021 20.4097 11.1799C21.6108 9.5831 22.1315 8.5628 21.9718 8.1184L21.9097 8.0146C21.8681 7.9521 21.7605 7.8949 21.5871 7.8427C21.4134 7.7907 21.1913 7.7821 20.9205 7.8168L17.9216 7.8375C17.873 7.8203 17.8036 7.8219 17.7132 7.8427C17.623 7.8636 17.5778 7.8741 17.5778 7.8741L17.5256 7.9002L17.4842 7.9315C17.4495 7.9522 17.4113 7.9886 17.3696 8.0407C17.3281 8.0926 17.2934 8.1535 17.2657 8.2229C16.9392 9.0629 16.568 9.8439 16.1514 10.5658C15.8945 10.9963 15.6586 11.3694 15.4432 11.6853C15.228 12.0011 15.0475 12.2337 14.9018 12.3829C14.7559 12.5321 14.6243 12.6517 14.506 12.7421C14.388 12.8324 14.2979 12.8706 14.2355 12.8567C14.1729 12.8427 14.114 12.8288 14.0582 12.815C13.9611 12.7525 13.883 12.6674 13.8241 12.5599C13.7649 12.4523 13.7251 12.3168 13.7043 12.1537C13.6836 11.9904 13.6713 11.85 13.6678 11.732C13.6646 11.6141 13.666 11.4473 13.6731 11.2321C13.6803 11.0168 13.6836 10.8711 13.6836 10.7947C13.6836 10.5309 13.6887 10.2446 13.699 9.9356C13.7095 9.6267 13.718 9.3819 13.7251 9.2016C13.7322 9.0211 13.7355 8.8302 13.7355 8.6288C13.7355 8.4275 13.7232 8.2696 13.699 8.155C13.6751 8.0406 13.6384 7.9295 13.59 7.8218C13.5413 7.7142 13.47 7.6309 13.3765 7.5719C13.2828 7.5129 13.1663 7.466 13.0277 7.4312C12.6597 7.348 12.1911 7.3029 11.6218 7.2959C10.3306 7.2821 9.50102 7.3654 9.13302 7.5459C8.98732 7.6222 8.85532 7.7264 8.73742 7.8582C8.61242 8.011 8.59502 8.0944 8.68522 8.1081C9.10182 8.1705 9.39672 8.3198 9.57032 8.5558L9.63282 8.6808C9.68152 8.7711 9.73012 8.9308 9.77872 9.1599C9.82722 9.3889 9.85862 9.6423 9.87232 9.9198C9.90702 10.4267 9.90702 10.8606 9.87232 11.2215C9.83762 11.5826 9.80482 11.8637 9.77342 12.065C9.74212 12.2663 9.69532 12.4295 9.63282 12.5544C9.57032 12.6793 9.52872 12.7557 9.50782 12.7834C9.48702 12.8111 9.46962 12.8286 9.45582 12.8355C9.36562 12.8701 9.27182 12.8877 9.17462 12.8877C9.07742 12.8877 8.95942 12.839 8.82062 12.7418C8.68182 12.6445 8.53782 12.511 8.38852 12.3409C8.23922 12.1707 8.07092 11.933 7.88342 11.6275C7.69602 11.3221 7.50162 10.9612 7.30032 10.5447L7.13372 10.2426C7.02962 10.0483 6.88732 9.7653 6.70682 9.394C6.52622 9.0225 6.36662 8.6632 6.22782 8.3161C6.17232 8.1703 6.08902 8.0593 5.97796 7.9829L5.92584 7.9516C5.89119 7.9239 5.83557 7.8945 5.75927 7.8631C5.68286 7.8318 5.60313 7.8093 5.51976 7.7955L2.66656 7.8162C2.375 7.8162 2.17718 7.8822 2.07301 8.0142L2.03133 8.0766C2.0105 8.1113 2 8.1668 2 8.2432C2 8.3196 2.02082 8.4134 2.06251 8.5243C2.47902 9.5033 2.93197 10.4473 3.42136 11.3567C3.91074 12.2661 4.33601 12.9987 4.69691 13.5537C5.05787 14.1092 5.4258 14.6334 5.8007 15.1261C6.17562 15.619 6.42372 15.9349 6.54522 16.0737C6.66672 16.2127 6.76222 16.3167 6.83162 16.3861L7.09202 16.636C7.25862 16.8026 7.50322 17.0022 7.82612 17.2347C8.14902 17.4673 8.50642 17.6964 8.89862 17.9222C9.29092 18.1476 9.74732 18.3316 10.268 18.4739C10.7887 18.6163 11.2954 18.6735 11.7883 18.6459H12.9859C13.2287 18.6249 13.4127 18.5485 13.5378 18.4167L13.5792 18.3645C13.6071 18.3231 13.6332 18.2587 13.6573 18.1721C13.6816 18.0853 13.6937 17.9897 13.6937 17.8858C13.6866 17.5873 13.7093 17.3183 13.7613 17.0788C13.8132 16.8394 13.8723 16.6589 13.9385 16.5374C14.0046 16.4159 14.0792 16.3134 14.1623 16.2304C14.2455 16.1471 14.3048 16.0966 14.3396 16.0793C14.3742 16.0618 14.4018 16.05 14.4226 16.0429C14.5892 15.9873 14.7853 16.0411 15.0111 16.2044C15.2368 16.3675 15.4484 16.569 15.6464 16.8084C15.8443 17.048 16.082 17.3168 16.3596 17.6153C16.6374 17.9138 16.8804 18.1358 17.0885 18.2818L17.2967 18.4067C17.4358 18.4901 17.6163 18.5665 17.8384 18.6359C18.0602 18.7053 18.2546 18.7226 18.4214 18.6879L21.0871 18.6464C21.3507 18.6464 21.5559 18.6027 21.7014 18.5161C21.8472 18.4293 21.9338 18.3337 21.9618 18.2297C21.9896 18.1256 21.9911 18.0075 21.9671 17.8755C21.9424 17.7438 21.9181 17.6517 21.8938 17.5997Z" fill="#AEAFB2"/>
</svg>
