<svg width="24" height="22" viewBox="0 0 24 22" fill="none" xmlns="http://www.w3.org/2000/svg">
<path d="M20.2984 5.7534C19.6487 4.98107 18.4491 4.66602 16.1581 4.66602H7.8418C5.49834 4.66602 4.27841 5.0014 3.6311 5.8237C3 6.6255 3 7.8068 3 9.4418V12.558C3 15.7255 3.7488 17.3337 7.8418 17.3337H16.1581C18.1449 17.3337 19.2458 17.0557 19.958 16.3741C20.6884 15.6751 21 14.5338 21 12.558V9.4418C21 7.7175 20.9512 6.5292 20.2984 5.7534ZM14.5561 11.4301L10.7797 13.4038C10.6952 13.4479 10.6029 13.4698 10.5107 13.4698C10.4063 13.4698 10.3021 13.4417 10.2099 13.3859C10.0361 13.2806 9.9301 13.0923 9.9301 12.8892V8.9545C9.9301 8.7517 10.0359 8.56359 10.2092 8.45829C10.3827 8.35289 10.5984 8.3457 10.7783 8.4392L14.5547 10.4002C14.7469 10.4999 14.8675 10.6983 14.8678 10.9147C14.868 11.1313 14.7479 11.3299 14.5561 11.4301Z" fill="#AEAFB2"/>
</svg>
